<svg width="129" height="24" viewBox="0 0 2367 446" fill="none" xmlns="http://www.w3.org/2000/svg">
<path d="M28.5401 421.425C7.38868 378.058 -2.28183 329.99 0.453608 281.817C3.18905 233.645 18.2389 186.98 44.1637 146.286C70.0885 105.592 106.021 72.2312 148.524 49.3935C191.027 26.5558 238.679 15.0055 286.922 15.8476C335.165 16.6897 382.384 29.896 424.064 54.2032C465.745 78.5103 500.491 113.105 524.98 154.679C549.468 196.253 562.88 243.414 563.933 291.653C564.986 339.892 553.643 387.594 530.991 430.196L406.496 364C417.822 342.699 423.493 318.848 422.966 294.729C422.44 270.61 415.734 247.029 403.49 226.242C391.245 205.455 373.872 188.158 353.032 176.004C332.192 163.85 308.582 157.247 284.461 156.826C260.34 156.405 236.514 162.18 215.262 173.599C194.01 185.018 176.044 201.699 163.082 222.045C150.119 242.392 142.595 265.725 141.227 289.811C139.859 313.897 144.694 337.932 155.27 359.615L28.5401 421.425Z" fill="#8AE7B0"/>
<path d="M95.0509 388.986C79.4498 356.999 72.3169 321.544 74.3346 286.013C76.3522 250.481 87.4528 216.062 106.575 186.046C125.696 156.031 152.2 131.424 183.55 114.579C214.899 97.7346 250.047 89.2153 285.63 89.8364C321.213 90.4575 356.042 100.198 386.785 118.127C417.528 136.056 443.156 161.572 461.219 192.237C479.282 222.901 489.174 257.687 489.951 293.267C490.727 328.847 482.361 364.032 465.653 395.455L373.827 346.63C382.181 330.918 386.363 313.326 385.975 295.536C385.587 277.746 380.641 260.353 371.609 245.021C362.578 229.689 349.764 216.93 334.393 207.966C319.021 199.001 301.607 194.131 283.815 193.821C266.023 193.51 248.45 197.77 232.775 206.192C217.1 214.614 203.848 226.918 194.287 241.926C184.726 256.933 179.176 274.143 178.167 291.909C177.158 309.674 180.725 327.402 188.525 343.395L95.0509 388.986Z" fill="#47CF7E"/>
<path d="M176.846 349.162C168.067 331.162 164.053 311.211 165.188 291.216C166.324 271.222 172.57 251.853 183.331 234.962C194.091 218.072 209.005 204.225 226.647 194.746C244.288 185.267 264.066 180.473 284.09 180.823C304.114 181.172 323.713 186.653 341.013 196.742C358.312 206.831 372.734 221.19 382.899 238.446C393.063 255.702 398.63 275.277 399.067 295.299C399.503 315.321 394.796 335.12 385.394 352.802L282.047 297.852L176.846 349.162Z" fill="#14B052"/>
<path d="M661.295 357V88.8233H849.856V147.487H734.1V193.58H838.333V252.243H734.1V357H661.295ZM878.479 357V88.8233H1071.75V147.487H951.284V193.58H1061.8V252.243H951.284V298.336H1071.23V357H878.479ZM1179.37 357H1100.8L1189.32 88.8233H1288.84L1377.36 357H1298.79L1240.13 162.677H1238.03L1179.37 357ZM1164.7 251.196H1312.41V305.669H1164.7V251.196ZM1539.15 172.629C1538.45 163.899 1535.18 157.09 1529.33 152.201C1523.57 147.312 1514.8 144.868 1503.01 144.868C1495.5 144.868 1489.35 145.785 1484.55 147.618C1479.83 149.364 1476.34 151.764 1474.07 154.82C1471.8 157.875 1470.62 161.367 1470.54 165.296C1470.36 168.526 1470.93 171.45 1472.24 174.069C1473.64 176.601 1475.82 178.914 1478.79 181.009C1481.76 183.017 1485.55 184.85 1490.18 186.509C1494.81 188.167 1500.31 189.651 1506.68 190.961L1528.68 195.675C1543.52 198.818 1556.22 202.964 1566.78 208.115C1577.35 213.265 1585.99 219.332 1592.71 226.316C1599.43 233.213 1604.36 240.982 1607.51 249.625C1610.74 258.267 1612.4 267.695 1612.48 277.909C1612.4 295.543 1607.99 310.471 1599.26 322.692C1590.53 334.914 1578.04 344.211 1561.81 350.584C1545.66 356.956 1526.23 360.143 1503.54 360.143C1480.23 360.143 1459.89 356.694 1442.52 349.798C1425.23 342.902 1411.79 332.295 1402.18 317.978C1392.67 303.574 1387.87 285.154 1387.78 262.719H1456.92C1457.36 270.925 1459.41 277.822 1463.07 283.409C1466.74 288.996 1471.89 293.229 1478.53 296.11C1485.25 298.991 1493.23 300.431 1502.49 300.431C1510.26 300.431 1516.76 299.471 1522 297.551C1527.24 295.63 1531.21 292.968 1533.92 289.563C1536.62 286.158 1538.02 282.274 1538.11 277.909C1538.02 273.806 1536.67 270.227 1534.05 267.171C1531.51 264.029 1527.32 261.235 1521.48 258.791C1515.63 256.259 1507.73 253.902 1497.77 251.72L1471.06 245.958C1447.32 240.808 1428.59 232.209 1414.89 220.162C1401.27 208.027 1394.5 191.485 1394.59 170.533C1394.5 153.51 1399.04 138.626 1408.21 125.881C1417.46 113.048 1430.25 103.053 1446.57 95.8943C1462.99 88.736 1481.8 85.1568 1503.01 85.1568C1524.66 85.1568 1543.39 88.7796 1559.19 96.0253C1574.99 103.271 1587.17 113.485 1595.72 126.667C1604.36 139.761 1608.73 155.082 1608.82 172.629H1539.15ZM1634.69 147.487V88.8233H1867.77V147.487H1787.11V357H1715.35V147.487H1634.69Z" fill="#47CF7E"/>
<path d="M1897.02 357V88.8233H2090.29V147.487H1969.82V193.58H2080.34V252.243H1969.82V298.336H2089.77V357H1897.02ZM2129.29 357V316.669L2256.05 147.487H2129.81V88.8233H2348.76V129.155L2222 298.336H2348.23V357H2129.29Z" fill="#14B052"/>
</svg>
